<svg xmlns="http://www.w3.org/2000/svg" version="1.1" xmlns:xlink="http://www.w3.org/1999/xlink" xmlns:svgjs="http://svgjs.dev/svgjs" width="1500" height="935" viewBox="0 0 1500 935"><g transform="matrix(1,0,0,1,-0.9090909090909918,0.3785425101214628)"><svg viewBox="0 0 396 247" data-background-color="#dedede" preserveAspectRatio="xMidYMid meet" height="935" width="1500" xmlns="http://www.w3.org/2000/svg" xmlns:xlink="http://www.w3.org/1999/xlink"><g id="tight-bounds" transform="matrix(1,0,0,1,0.2400000000000091,-0.09999999999999432)"><svg viewBox="0 0 395.52 247.2" height="247.2" width="395.52"><g><svg></svg></g><g><svg viewBox="0 0 395.52 247.2" height="247.2" width="395.52"><g transform="matrix(1,0,0,1,75.54432,97.62567212814645)"><svg viewBox="0 0 244.43135999999998 51.94865574370709" height="51.94865574370709" width="244.43135999999998"><g><svg viewBox="0 0 244.43135999999998 51.94865574370709" height="51.94865574370709" width="244.43135999999998"><g><svg viewBox="0 0 244.43135999999998 51.94865574370709" height="51.94865574370709" width="244.43135999999998"><g><svg viewBox="0 0 244.43135999999998 51.94865574370709" height="51.94865574370709" width="244.43135999999998"><g id="textblocktransform"><svg viewBox="0 0 244.43135999999998 51.94865574370709" height="51.94865574370709" width="244.43135999999998" id="textblock"><g><svg viewBox="0 0 244.43135999999998 51.94865574370709" height="51.94865574370709" width="244.43135999999998"><g transform="matrix(1,0,0,1,0,0)"><svg width="244.43135999999998" viewBox="1.05 -36.5 174.78 37.15" height="51.94865574370709" data-palette-color="#374151"><path d="M10.8-25.35Q11.6-25.35 12.93-25.4 14.25-25.45 15.05-25.5L15.05-25.5 15-24.4Q14.95-23.9 14.65-23.58 14.35-23.25 13.9-23.25L13.9-23.25 8.75-23.25 8.75-21.35 8.75-5.25Q8.75-3.95 9.35-3.25 9.95-2.55 11.15-2.55L11.15-2.55Q11.9-2.55 12.58-2.83 13.25-3.1 13.5-3.6L13.5-3.6Q14.05-2.85 14.05-2L14.05-2Q14.05-0.85 12.85-0.15 11.65 0.55 9.8 0.55L9.8 0.55Q7.45 0.55 6.1-0.93 4.75-2.4 4.75-5L4.75-5 4.75-23.25 4.05-23.25Q2-23.25 1.05-23.1L1.05-23.1 1.1-24.25Q1.15-25.35 2.2-25.35L2.2-25.35 4.75-25.35 4.75-29.8Q4.75-30.85 5.4-31.43 6.05-32 7.1-32L7.1-32Q8.35-32 9.4-31.1L9.4-31.1Q8.85-29.4 8.8-25.35L8.8-25.35 10.8-25.35ZM30.6 0.65Q25.2 0.65 22.17-2.88 19.15-6.4 19.15-12.7L19.15-12.7Q19.15-19 22.17-22.53 25.2-26.05 30.6-26.05L30.6-26.05Q36.05-26.05 39.07-22.53 42.1-19 42.1-12.7L42.1-12.7Q42.1-6.4 39.07-2.88 36.05 0.65 30.6 0.65L30.6 0.65ZM30.6-1.15Q34.1-1.15 35.95-4.13 37.8-7.1 37.8-12.7L37.8-12.7Q37.8-18.3 35.95-21.25 34.1-24.2 30.6-24.2L30.6-24.2Q27.1-24.2 25.25-21.25 23.4-18.3 23.4-12.7L23.4-12.7Q23.4-7.1 25.25-4.13 27.1-1.15 30.6-1.15L30.6-1.15ZM70.7-3.45Q71.25-2.7 71.25-1.85L71.25-1.85Q71.25-0.85 70.37-0.23 69.5 0.4 68.15 0.4L68.15 0.4Q64.05 0.4 64.05-6L64.05-6 64.05-6.35Q62.84-3.05 60.62-1.2 58.4 0.65 55.09 0.65L55.09 0.65Q50.3 0.65 48.4-2.9 46.5-6.45 46.5-11.5L46.5-11.5Q46.5-18.4 49.22-22.23 51.95-26.05 57-26.05L57-26.05Q59.55-26.05 61.32-25.03 63.09-24 63.9-22.05L63.9-22.05 63.84-28.75Q63.84-33.35 63.2-35.6L63.2-35.6Q64.09-36.5 65.5-36.5L65.5-36.5Q66.55-36.5 67.2-35.93 67.84-35.35 67.84-34.3L67.84-34.3 67.8-5.25Q67.8-2.7 69.34-2.7L69.34-2.7Q70.3-2.7 70.7-3.45L70.7-3.45ZM56.09-1.8Q58.5-1.8 60.25-3.6 62-5.4 62.9-8.45 63.8-11.5 63.8-15.2L63.8-15.2Q63.8-23.7 57.65-23.7L57.65-23.7Q54.3-23.7 52.52-20.65 50.75-17.6 50.75-11.65L50.75-11.65Q50.75-7.2 51.87-4.5 53-1.8 56.09-1.8L56.09-1.8ZM86.24 0.65Q80.84 0.65 77.82-2.88 74.79-6.4 74.79-12.7L74.79-12.7Q74.79-19 77.82-22.53 80.84-26.05 86.24-26.05L86.24-26.05Q91.69-26.05 94.72-22.53 97.74-19 97.74-12.7L97.74-12.7Q97.74-6.4 94.72-2.88 91.69 0.65 86.24 0.65L86.24 0.65ZM86.24-1.15Q89.74-1.15 91.59-4.13 93.44-7.1 93.44-12.7L93.44-12.7Q93.44-18.3 91.59-21.25 89.74-24.2 86.24-24.2L86.24-24.2Q82.74-24.2 80.89-21.25 79.04-18.3 79.04-12.7L79.04-12.7Q79.04-7.1 80.89-4.13 82.74-1.15 86.24-1.15L86.24-1.15ZM119.64 0.5Q117.39 0.5 116.14-0.95 114.89-2.4 114.89-5.05L114.89-5.05 114.89-34.3Q114.89-35.35 115.54-35.93 116.19-36.5 117.24-36.5L117.24-36.5Q118.49-36.5 119.54-35.6L119.54-35.6Q119.14-34.3 119.01-32.25 118.89-30.2 118.89-25.85L118.89-25.85 118.89-5.25Q118.89-3.95 119.36-3.28 119.84-2.6 120.79-2.6L120.79-2.6Q121.34-2.6 121.86-2.88 122.39-3.15 122.64-3.65L122.64-3.65Q123.19-2.9 123.19-2.1L123.19-2.1Q123.19-0.95 122.16-0.23 121.14 0.5 119.64 0.5L119.64 0.5ZM130.74-30Q129.63-30 128.84-30.8 128.03-31.6 128.03-32.7L128.03-32.7Q128.03-33.85 128.84-34.63 129.63-35.4 130.74-35.4L130.74-35.4Q131.88-35.4 132.66-34.63 133.44-33.85 133.44-32.7L133.44-32.7Q133.44-31.6 132.66-30.8 131.88-30 130.74-30L130.74-30ZM132.94-5.7Q132.94-2.05 133.59-0.35L133.59-0.35Q132.53 0.55 131.28 0.55L131.28 0.55Q130.28 0.55 129.66-0.05 129.03-0.65 129.03-1.65L129.03-1.65 128.99-19.8Q128.99-23.25 128.34-25.15L128.34-25.15Q129.38-26.05 130.63-26.05L130.63-26.05Q131.63-26.05 132.26-25.48 132.88-24.9 132.88-23.85L132.88-23.85 132.94-5.7ZM148.58 0.65Q143.93 0.65 141.61-1.03 139.28-2.7 139.28-5.4L139.28-5.4Q139.28-6.65 139.88-7.43 140.48-8.2 141.78-8.2L141.78-8.2Q142.28-8.2 142.58-8.15L142.58-8.15Q142.43-7.55 142.43-6.95L142.43-6.95Q142.43-6.4 142.48-6.05L142.48-6.05Q142.58-3.85 144.31-2.55 146.03-1.25 148.93-1.25L148.93-1.25Q151.78-1.25 153.48-2.25 155.18-3.25 155.18-5.2L155.18-5.2Q155.18-7 153.88-8.05 152.58-9.1 149.78-10.35L149.78-10.35 148.18-11.1Q145.38-12.4 143.91-13.3 142.43-14.2 141.36-15.75 140.28-17.3 140.28-19.65L140.28-19.65Q140.28-22.9 142.83-24.5 145.38-26.1 149.28-26.1L149.28-26.1Q153.38-26.1 155.68-24.78 157.98-23.45 157.98-21.1L157.98-21.1Q157.98-19 156.13-18.8L156.13-18.8Q155.63-18.7 155.48-18.7L155.48-18.7Q155.18-18.7 154.68-18.8L154.68-18.8Q154.78-19.4 154.78-19.8L154.78-19.8Q154.78-20.45 154.63-20.9L154.63-20.9Q154.43-22.55 153.01-23.4 151.58-24.25 149.13-24.25L149.13-24.25Q146.88-24.25 145.43-23.43 143.98-22.6 143.98-20.8L143.98-20.8Q143.98-19.3 144.83-18.23 145.68-17.15 146.86-16.48 148.03-15.8 150.43-14.65L150.43-14.65 151.53-14.15Q153.98-13 155.46-12.13 156.93-11.25 157.96-9.85 158.98-8.45 158.98-6.5L158.98-6.5Q158.98-3.55 156.53-1.45 154.08 0.65 148.58 0.65L148.58 0.65ZM171.58-25.35Q172.38-25.35 173.71-25.4 175.03-25.45 175.83-25.5L175.83-25.5 175.78-24.4Q175.73-23.9 175.43-23.58 175.13-23.25 174.68-23.25L174.68-23.25 169.53-23.25 169.53-21.35 169.53-5.25Q169.53-3.95 170.13-3.25 170.73-2.55 171.93-2.55L171.93-2.55Q172.68-2.55 173.35-2.83 174.03-3.1 174.28-3.6L174.28-3.6Q174.83-2.85 174.83-2L174.83-2Q174.83-0.85 173.63-0.15 172.43 0.55 170.58 0.55L170.58 0.55Q168.23 0.55 166.88-0.93 165.53-2.4 165.53-5L165.53-5 165.53-23.25 164.83-23.25Q162.78-23.25 161.83-23.1L161.83-23.1 161.88-24.25Q161.93-25.35 162.98-25.35L162.98-25.35 165.53-25.35 165.53-29.8Q165.53-30.85 166.18-31.43 166.83-32 167.88-32L167.88-32Q169.13-32 170.18-31.1L170.18-31.1Q169.63-29.4 169.58-25.35L169.58-25.35 171.58-25.35Z" opacity="1" transform="matrix(1,0,0,1,0,0)" fill="#374151" class="wordmark-text-0" data-fill-palette-color="primary" id="text-0"></path></svg></g></svg></g></svg></g></svg></g></svg></g></svg></g></svg></g><g><path d="M245.816 0c68.262 0 123.6 55.338 123.6 123.6 0 68.262-55.338 123.6-123.6 123.6-57.157 0-105.253-38.797-119.389-91.494h2.427c14.074 51.388 61.108 89.151 116.962 89.152 66.969 0 121.258-54.289 121.257-121.258 0-66.969-54.289-121.258-121.257-121.258-55.854 0-102.888 37.764-116.962 89.152l-2.427 0c14.136-52.696 62.232-91.494 119.389-91.494z" fill="#374151" stroke="transparent" data-fill-palette-color="tertiary"></path></g></svg></g><defs></defs></svg><rect width="395.52" height="247.2" fill="none" stroke="none" visibility="hidden"></rect></g></svg></g></svg>